<?xml version="1.0" encoding="UTF-8"?><svg id="Layer_2" xmlns="http://www.w3.org/2000/svg" viewBox="0 0 196.11 155.97"><defs><style>.cls-1{fill:#c7c7c7;}.cls-2{fill:#ededed;}</style></defs><g id="_イヤー_1"><g><path class="cls-2" d="M102.59,91.12c0,20.99-4.34,37.05-13.03,48.17-8.69,11.12-21.41,16.68-38.16,16.68s-29.19-5.46-37.95-16.37C4.69,128.69,.21,113.05,0,92.68v-27.94C0,43.54,4.39,27.46,13.19,16.47,21.98,5.49,34.65,0,51.19,0s29.19,5.44,37.95,16.32c8.76,10.88,13.24,26.5,13.45,46.86v27.94Zm-30.13-30.72c0-12.59-1.72-21.76-5.16-27.5-3.44-5.74-8.81-8.61-16.11-8.61s-12.32,2.73-15.69,8.19c-3.37,5.46-5.16,14-5.37,25.62v36.94c0,12.38,1.68,21.59,5.06,27.6,3.37,6.02,8.77,9.03,16.21,9.03s12.68-2.89,15.95-8.66c3.27-5.77,4.97-14.61,5.11-26.51V60.4Z"/><path class="cls-2" d="M196.11,153.88h-30.13V37.74l-35.97,11.16V24.4L192.87,1.88h3.23V153.88Z"/></g><g><path class="cls-1" d="M84.99,119.71c.62,0,1.13-.17,1.52-.52s.59-.8,.61-1.37h3.18c0,.86-.24,1.65-.7,2.36s-1.09,1.27-1.89,1.66-1.69,.59-2.65,.59c-1.81,0-3.24-.58-4.29-1.73s-1.57-2.74-1.57-4.78v-.22c0-1.95,.52-3.51,1.56-4.68s2.46-1.75,4.28-1.75c1.59,0,2.86,.45,3.81,1.35s1.44,2.1,1.46,3.6h-3.18c-.02-.66-.22-1.2-.61-1.61-.39-.41-.91-.62-1.55-.62-.79,0-1.38,.29-1.79,.86-.4,.58-.6,1.51-.6,2.8v.35c0,1.31,.2,2.25,.6,2.82,.4,.57,1,.86,1.82,.86Z"/><path class="cls-1" d="M105.58,122.2c-.16-.3-.27-.68-.34-1.14-.82,.91-1.89,1.37-3.2,1.37-1.24,0-2.27-.36-3.09-1.08s-1.22-1.62-1.22-2.72c0-1.34,.5-2.38,1.49-3.09s2.44-1.08,4.32-1.09h1.56v-.73c0-.59-.15-1.05-.45-1.41s-.78-.53-1.42-.53c-.57,0-1.02,.14-1.34,.41s-.49,.65-.49,1.12h-3.39c0-.73,.23-1.41,.68-2.04s1.09-1.12,1.92-1.47,1.76-.53,2.79-.53c1.56,0,2.8,.39,3.72,1.18s1.38,1.89,1.38,3.31v5.5c0,1.2,.18,2.11,.5,2.73v.2h-3.42Zm-2.8-2.36c.5,0,.96-.11,1.38-.33s.73-.52,.94-.9v-2.18h-1.27c-1.7,0-2.6,.59-2.71,1.76v.2c-.01,.42,.14,.77,.43,1.04s.7,.41,1.22,.41Z"/><path class="cls-1" d="M123.97,118.7c0-.41-.21-.74-.62-.98s-1.07-.45-1.97-.64c-3.02-.63-4.52-1.91-4.52-3.84,0-1.12,.47-2.06,1.4-2.82s2.15-1.13,3.66-1.13c1.61,0,2.9,.38,3.86,1.14s1.45,1.74,1.45,2.95h-3.39c0-.48-.16-.88-.47-1.2s-.8-.47-1.46-.47c-.57,0-1.01,.13-1.32,.39s-.47,.59-.47,.98c0,.38,.18,.68,.53,.91s.96,.43,1.8,.6,1.55,.36,2.13,.57c1.79,.66,2.68,1.79,2.68,3.41,0,1.16-.5,2.09-1.49,2.81s-2.27,1.07-3.84,1.07c-1.06,0-2.01-.19-2.83-.57s-1.47-.9-1.94-1.56-.7-1.37-.7-2.14h3.21c.03,.6,.25,1.06,.67,1.38s.97,.48,1.66,.48c.65,0,1.14-.12,1.47-.37s.5-.57,.5-.97Z"/><path class="cls-1" d="M141.28,122.44c-1.86,0-3.37-.57-4.54-1.71s-1.75-2.66-1.75-4.56v-.33c0-1.27,.25-2.41,.74-3.42s1.19-1.78,2.09-2.32,1.93-.81,3.09-.81c1.73,0,3.1,.55,4.1,1.64s1.49,2.64,1.49,4.65v1.38h-8.07c.11,.83,.44,1.49,.99,1.99s1.25,.75,2.09,.75c1.3,0,2.32-.47,3.06-1.42l1.66,1.86c-.51,.72-1.2,1.28-2.06,1.68s-1.83,.6-2.88,.6Zm-.39-10.42c-.67,0-1.22,.23-1.63,.68-.42,.46-.69,1.11-.8,1.95h4.71v-.27c-.02-.75-.22-1.34-.61-1.75-.39-.41-.95-.62-1.66-.62Z"/></g></g></svg>