<?xml version="1.0" encoding="UTF-8"?><svg id="Layer_2" xmlns="http://www.w3.org/2000/svg" viewBox="0 0 320.36 81.42"><defs><style>.cls-1{fill:#7a89a8;}</style></defs><g id="_イヤー_1"><g><path class="cls-1" d="M31.51,39.41c-2.87,3.23-7.09,5.3-12.75,5.3C8.26,44.7,0,36.71,0,24.06S8.8,0,22.62,0c14.81,0,22.44,12.39,22.44,28.64,0,23.52-12.21,42.46-39.5,41.2v-10.41c2.07,.18,3.41,0,6.55-.27,11.22-1.17,17.68-9.34,19.66-19.66l-.27-.09ZM13.2,22.89c0,7.99,3.77,12.84,9.16,12.84,4.04,0,7.09-2.51,8.53-5.12,.54-.99,.72-2.33,.72-4.94,0-9.07-3.05-16.25-9.43-16.25-5.39,0-8.98,5.75-8.98,13.46Z"/><path class="cls-1" d="M70.46,68.94V12.93h-.18l-11.67,6.1-2.87-9.51L72.26,1.08h11.13V68.94h-12.93Z"/><path class="cls-1" d="M121,52.96c-3.05,9.61-7.54,20.56-11.85,27.56l-8.8,.9c2.87-8.17,5.66-18.85,6.91-27.38l13.73-1.08Z"/><path class="cls-1" d="M140.57,30.25c2.96-3.59,7.63-6.01,13.46-6.01,10.5,0,18.58,7.99,18.58,21.54,0,12.84-8.35,24.15-22.08,24.15-15.35,0-23.61-12.3-23.61-28.91C126.92,25.49,133.92,.09,166.24,.09V10.32c-1.71,0-3.59,.18-5.83,.45-12.48,1.71-18.4,10.5-20.11,19.48h.27Zm18.85,16.16c0-7.09-3.41-12.93-9.61-12.93-3.95,0-9.69,3.41-9.69,11.04,.18,8.8,3.77,15.8,10.32,15.8,5.83,0,8.98-6.28,8.98-13.91Z"/><path class="cls-1" d="M190.21,33.3c-6.28-3.5-9.61-9.16-9.61-14.9,0-11.22,9.25-18.4,21.01-18.4,13.46,0,19.84,8.53,19.84,17.06,0,5.48-3.05,11.49-9.96,15.26v.18c6.64,3.05,12.12,8.89,12.12,17.33,0,12.12-9.52,20.11-22.98,20.11-14.45,0-22.17-8.89-22.17-18.58,0-8.35,4.94-14.36,11.76-17.77v-.27Zm20.11,17.59c0-6.64-4.49-10.86-10.41-12.84-5.12,1.88-8.17,6.64-8.17,12.03,0,5.75,3.5,10.77,9.25,10.77s9.34-4.67,9.34-9.96Zm-17.24-33.12c0,5.21,3.77,8.8,9.07,10.77,3.77-1.53,6.91-5.75,6.91-10.32s-2.24-9.34-7.9-9.34-8.08,4.58-8.08,8.89Z"/><path class="cls-1" d="M272.97,68.94h-42.46v-8.17l7.54-8.08c12.84-13.29,20.38-21.99,20.38-31.15,0-5.92-3.14-10.86-10.59-10.86-4.94,0-9.52,2.6-12.66,4.94l-3.68-9.51c4.22-3.23,11.22-6.1,19.03-6.1,14.54,0,21.19,9.25,21.19,20.29,0,12.03-8.17,21.9-18.04,31.87l-5.66,5.57v.18h24.96v11.04Z"/><path class="cls-1" d="M320.36,44.12v26.53c0,4.52-2.19,5.03-8.87,5.03-.22-1.19-.93-3.2-1.58-4.31,1.4,.11,2.91,.11,3.99,.11,1.9,0,2.12,0,2.12-.9v-8.76h-21.9v13.86h-4.34v-31.56h30.59Zm-26.25,4.27v9.16h8.55v-9.16h-8.55Zm12.85,9.16h9.05v-9.16h-9.05v9.16Z"/></g></g></svg>