<?xml version="1.0" encoding="UTF-8"?><svg id="Layer_2" xmlns="http://www.w3.org/2000/svg" viewBox="0 0 118.72444 99.5353"><g id="Layer_1-2"><g><text transform="translate(0 18.35141)" fill="#bababa" font-family="Roboto-Bold, Roboto" font-size="21.4524"><tspan x="0" y="0" letter-spacing="-.01024em">Z</tspan><tspan x="12.7793" y="0">oom</tspan></text><g><path d="M41.21874,52.06917v.02913h4.16967v13.46857l4.80913-4.30059v-10.59165h-.02913v-.69757h0v-.0284h-2.2194l-.94208-.01282,9.51137-19.33293,5.61694-11.37878,15.94311,30.85472v7.68605l4.28778,.7516,.73965,.13442v-.00495l.0284,.00495v-7.97629h25.74546v8.3226l-.01428,3.95778,.01428-.00626v.03189c1.39513-.75509,2.94958-1.14771,4.54743-1.14771,.07383,0,.14709,.00364,.22107,.01209l.01136,.00218v-.00146c.01005,.00146,.01922,0,.02913,.00146v-11.17257h3.23196l1.46416,.01354-.00713-.01354h.03261L99.52322,14.13422h-3.4871V6.33225h-12.8294v7.80197h-23.95784l-17.60926,35.81444-.34835,.72596-.07252,.13092v1.26363h0Zm45.83842-28.40363V10.1827h5.12908v13.48284h-5.12908Z" fill="#bababa"/><polygon points="66.71604 49.48861 66.71604 39.28171 58.8564 39.28171 58.8564 49.39759 58.8564 49.45948 58.8564 49.45948 58.8564 49.48861 66.71604 49.48861" fill="#bababa"/><path d="M117.17588,67.74636c-.95926-.94441-2.20862-1.48193-3.48725-1.54018-.08738-.015-.17417-.015-.26155-.015-1.06033,0-2.13551,.31995-3.06551,.97426l-1.48192,1.07446-11.76849,8.54366-5.07068,3.67555c-.79922,.55179-1.68524,.94426-2.60037,1.13271h-2.93473c-.13078-.0284-.27655-.05752-.40747-.10092l-15.50229-4.34472c-.27582-.07252-.55179-.20344-.78422-.36262-.65359-.43602-1.11858-1.13358-1.23523-1.9328l-.15932-1.08931c-.23243-1.7145,1.08946-3.19643,2.77468-3.19643h.2617l6.62513,.62431,2.64377,.24684c.17504,.01485,.34921,.02913,.52339,.02913,.66844,0,1.30776-.11592,1.88867-.33349,2.31027-.84334,3.89385-3.18216,3.60375-5.81165-.10238-.97353-.84334-1.77275-1.81615-1.9328l-1.78761-.30495-5.05583-.88601-12.49518-2.1795c-.74096-.13092-1.49605-.18917-2.23702-.18917-3.18216,0-6.27679,1.16256-8.68871,3.31293l-4.45991,3.98064-4.80913,4.28632-12.01577,10.72185c-1.38028,1.22081-1.58357,3.29866-.47927,4.76559l8.35376,11.2167c.69757,.94426,1.75848,1.42353,2.84794,1.42353,.79922,0,1.59843-.2617,2.25187-.81349l8.10706-6.69766c1.4244-1.16271,3.18216-1.78702,4.96918-1.78702,.65417,0,1.32188,.0868,1.96105,.26097l23.43518,6.08762c.58165,.16005,1.17683,.2333,1.77275,.2333,1.49678,0,2.97871-.48,4.19894-1.4094l18.11766-13.81779,4.77985-3.64642,2.90561-2.20862c2.58609-1.93207,2.86279-5.70927,.58165-7.99041Z" fill="#bababa"/></g></g></g></svg>