<svg xmlns="http://www.w3.org/2000/svg" viewBox="0 0 322.18 55.84"><g id="Layer_2" data-name="Layer 2"><g id="レイヤー_1" data-name="レイヤー 1"><path d="M21.81,55.29l-14-36.41V55.29H0V.55H5.87L19.55,34.4V.55h7.82V55.29Z"/><path d="M71.75,37.69a30.76,30.76,0,0,1-.77,7,15.71,15.71,0,0,1-2.56,5.77,12.75,12.75,0,0,1-4.81,3.94,17,17,0,0,1-7.5,1.47,20.06,20.06,0,0,1-5.41-.67,13.69,13.69,0,0,1-4.08-1.87,11.51,11.51,0,0,1-2.91-2.87,14.67,14.67,0,0,1-1.91-3.69,21.55,21.55,0,0,1-1-4.31,36.55,36.55,0,0,1-.3-4.74V18.14a36.51,36.51,0,0,1,.3-4.73,21.55,21.55,0,0,1,1-4.31,14.67,14.67,0,0,1,1.91-3.69,11.51,11.51,0,0,1,2.91-2.87A13.69,13.69,0,0,1,50.7.67,19.67,19.67,0,0,1,56.11,0a17,17,0,0,1,7.5,1.47,12.66,12.66,0,0,1,4.81,3.94A15.71,15.71,0,0,1,71,11.18a30.74,30.74,0,0,1,.77,7Zm-23.46,2a18.91,18.91,0,0,0,.39,4A8.5,8.5,0,0,0,50,46.74a6.09,6.09,0,0,0,2.41,2,10.1,10.1,0,0,0,7.39,0,6.12,6.12,0,0,0,2.42-2,8.33,8.33,0,0,0,1.31-3.09,18.88,18.88,0,0,0,.4-4V16.19a18.88,18.88,0,0,0-.4-4A8.33,8.33,0,0,0,62.22,9.1a6.12,6.12,0,0,0-2.42-2,10,10,0,0,0-7.39,0A6.09,6.09,0,0,0,50,9.1a8.5,8.5,0,0,0-1.32,3.09,18.91,18.91,0,0,0-.39,4Z"/><path d="M109.74.55,113.65,26l1.92,15.64,2-15.64L121.47.55h7.82l-9.77,54.74H111.7l-3.91-25.42-2-15.64-2,15.64L100,55.29H92.15L82.37.55h7.82L94.1,26l2,15.64L98,26,101.92.55Z"/><path d="M188.66,37.69a31.35,31.35,0,0,1-.76,7,15.72,15.72,0,0,1-2.57,5.77,12.75,12.75,0,0,1-4.81,3.94,17,17,0,0,1-7.5,1.47,20.06,20.06,0,0,1-5.41-.67,13.63,13.63,0,0,1-4.07-1.87,11.39,11.39,0,0,1-2.92-2.87,15,15,0,0,1-1.91-3.69,20.88,20.88,0,0,1-1-4.31,34.84,34.84,0,0,1-.31-4.74V18.14a34.8,34.8,0,0,1,.31-4.73,20.88,20.88,0,0,1,1-4.31,15,15,0,0,1,1.91-3.69,11.39,11.39,0,0,1,2.92-2.87A13.63,13.63,0,0,1,167.61.67,19.67,19.67,0,0,1,173,0a17,17,0,0,1,7.5,1.47,12.66,12.66,0,0,1,4.81,3.94,15.72,15.72,0,0,1,2.57,5.77,31.32,31.32,0,0,1,.76,7Zm-23.46,2a18.25,18.25,0,0,0,.4,4,8.33,8.33,0,0,0,1.31,3.09,6.16,6.16,0,0,0,2.41,2,10.13,10.13,0,0,0,7.4,0,6.16,6.16,0,0,0,2.41-2,8.33,8.33,0,0,0,1.31-3.09,18.25,18.25,0,0,0,.4-4V16.19a18.25,18.25,0,0,0-.4-4,8.33,8.33,0,0,0-1.31-3.09,6.16,6.16,0,0,0-2.41-2,10,10,0,0,0-7.4,0,6.16,6.16,0,0,0-2.41,2,8.33,8.33,0,0,0-1.31,3.09,18.25,18.25,0,0,0-.4,4Z"/><path d="M215.44.55a16.45,16.45,0,0,1,6.26,1.07A10.6,10.6,0,0,1,226,4.7a12.88,12.88,0,0,1,2.41,4.92,25.87,25.87,0,0,1,.77,6.57,16.91,16.91,0,0,1-1,6.26,11.21,11.21,0,0,1-2.87,4.25,11.4,11.4,0,0,1-4.34,2.41,18.53,18.53,0,0,1-5.44.76h-5.86V55.29h-7.82V.55ZM211.53,24a23.76,23.76,0,0,0,4.83-.4,6.72,6.72,0,0,0,3-1.31,4.83,4.83,0,0,0,1.53-2.41,13.87,13.87,0,0,0,.43-3.7c0-1.47-.05-2.8-.16-4a6,6,0,0,0-1.07-3.09,5.81,5.81,0,0,0-2.9-2,17.57,17.57,0,0,0-5.65-.71h-1.95V24Z"/><path d="M258.84,29.87h-9.77V49.42h13.68v5.87h-21.5V.55h21.5V6.41H249.07V24h9.77Z"/><path d="M296.68,55.29l-14-36.41V55.29h-7.82V.55h5.87L294.42,34.4V.55h7.82V55.29Z"/><path d="M314.36.55h7.82v43h-5.86Zm0,46.92h7.82v7.82h-7.82Z"/></g></g></svg>